<svg width="50" height="59" viewBox="0 0 50 59" fill="none" xmlns="http://www.w3.org/2000/svg">
<path d="M2.75 3.15416L11.45 3.20416V0.454163H0V50.4542H32V47.7042H2.75V3.15416Z" fill="#2B3C7A"/>
<path d="M18 0.454163V3.20416H47.3L47.25 47.7042H38.55V50.4542H50V0.454163H18Z" fill="#2B3C7A"/>
<path d="M18.5 0.454163H15.75V3.15416H18.5V0.454163Z" fill="#3775BA"/>
<path d="M11.4999 18.1042V27.2542H15.8999L16.7499 29.1542H9.3999V18.1042H11.4999Z" fill="#2B3C7A"/>
<path d="M24.05 21.4042L18.15 35.1542H16L18.6 29.0542L15.45 21.4042H17.7L18.9 24.7542L19.65 26.9542L20.45 24.8042L21.9 21.4042H24.05Z" fill="#2B3C7A"/>
<path d="M27.25 21.4042L27.4 22.3042C27.9999 21.3542 28.8 21.2042 29.6 21.2042C30.4 21.2042 31.2 21.5042 31.6 21.9542L30.75 23.6042C30.35 23.2542 30 23.1042 29.35 23.1042C28.35 23.1042 27.4 23.6542 27.4 25.0542V29.1542H25.45V21.3542L27.25 21.4042Z" fill="#2B3C7A"/>
<path d="M38.5001 21.4041H40.3501V29.2041H38.5501L38.4501 28.0541C38.0001 28.9541 36.8001 29.4041 35.9001 29.4041C33.6001 29.4041 31.9001 28.0041 31.9001 25.2541C31.9001 22.5541 33.7001 21.1541 35.9501 21.2041C37.0001 21.2041 38.0001 21.7041 38.4501 22.4541L38.5001 21.4041ZM33.8001 25.2541C33.8001 26.7541 34.8501 27.6041 36.1001 27.6041C39.1501 27.6041 39.1501 22.9041 36.1001 22.9041C34.8501 22.9041 33.8001 23.8041 33.8001 25.2541Z" fill="#2B3C7A"/>
<path d="M34.3 47.7542H31.55V50.4542H34.3V47.7542Z" fill="#3775BA"/>
<circle cx="26" cy="48.675" r="10" fill="#9253B8"/>
<path d="M31.2368 43.2204H20.3277C20.183 43.2204 20.0443 43.2779 19.942 43.3802C19.8397 43.4825 19.7822 43.6212 19.7822 43.7659V45.9477C19.7832 46.2853 19.8885 46.6143 20.0838 46.8897C20.2791 47.1651 20.5548 47.3733 20.8731 47.4859V53.584C20.8731 53.7287 20.9306 53.8674 21.0329 53.9697C21.1352 54.072 21.2739 54.1295 21.4186 54.1295H30.1459C30.2905 54.1295 30.4293 54.072 30.5316 53.9697C30.6339 53.8674 30.6913 53.7287 30.6913 53.584V47.4859C31.0096 47.3733 31.2853 47.1651 31.4806 46.8897C31.6759 46.6143 31.7813 46.2853 31.7822 45.9477V43.7659C31.7822 43.6212 31.7248 43.4825 31.6225 43.3802C31.5202 43.2779 31.3814 43.2204 31.2368 43.2204ZM27.4186 44.3113H28.5095V45.9477C28.5095 46.0923 28.452 46.2311 28.3497 46.3334C28.2474 46.4357 28.1087 46.4931 27.964 46.4931C27.8194 46.4931 27.6806 46.4357 27.5784 46.3334C27.4761 46.2311 27.4186 46.0923 27.4186 45.9477V44.3113ZM25.2368 44.3113H26.3277V45.9477C26.3277 46.0923 26.2702 46.2311 26.1679 46.3334C26.0656 46.4357 25.9269 46.4931 25.7822 46.4931C25.6376 46.4931 25.4988 46.4357 25.3965 46.3334C25.2942 46.2311 25.2368 46.0923 25.2368 45.9477V44.3113ZM23.055 44.3113H24.1459V45.9477C24.1459 46.0923 24.0884 46.2311 23.9861 46.3334C23.8838 46.4357 23.7451 46.4931 23.6004 46.4931C23.4557 46.4931 23.317 46.4357 23.2147 46.3334C23.1124 46.2311 23.055 46.0923 23.055 45.9477V44.3113ZM21.4186 46.4931C21.2739 46.4931 21.1352 46.4357 21.0329 46.3334C20.9306 46.2311 20.8731 46.0923 20.8731 45.9477V44.3113H21.964V45.9477C21.964 46.0923 21.9066 46.2311 21.8043 46.3334C21.702 46.4357 21.5633 46.4931 21.4186 46.4931ZM26.8731 53.0386H24.6913V50.8568C24.6913 50.5674 24.8063 50.29 25.0108 50.0854C25.2154 49.8808 25.4929 49.7659 25.7822 49.7659C26.0716 49.7659 26.349 49.8808 26.5536 50.0854C26.7582 50.29 26.8731 50.5674 26.8731 50.8568V53.0386ZM29.6004 53.0386H27.964V50.8568C27.964 50.2781 27.7342 49.7232 27.325 49.314C26.9158 48.9048 26.3609 48.6749 25.7822 48.6749C25.2036 48.6749 24.6486 48.9048 24.2394 49.314C23.8303 49.7232 23.6004 50.2781 23.6004 50.8568V53.0386H21.964V47.4859C22.1645 47.4114 22.3495 47.3005 22.5095 47.1586C22.8095 47.4269 23.1979 47.5753 23.6004 47.5753C24.0029 47.5753 24.3913 47.4269 24.6913 47.1586C24.9913 47.4269 25.3797 47.5753 25.7822 47.5753C26.1847 47.5753 26.5731 47.4269 26.8731 47.1586C27.1731 47.4269 27.5615 47.5753 27.964 47.5753C28.3666 47.5753 28.7549 47.4269 29.055 47.1586C29.215 47.3005 29.3999 47.4114 29.6004 47.4859V53.0386ZM30.6913 45.9477C30.6913 46.0923 30.6339 46.2311 30.5316 46.3334C30.4293 46.4357 30.2905 46.4931 30.1459 46.4931C30.0012 46.4931 29.8625 46.4357 29.7602 46.3334C29.6579 46.2311 29.6004 46.0923 29.6004 45.9477V44.3113H30.6913V45.9477Z" fill="white"/>
</svg>
