<svg width="36" height="43" viewBox="0 0 36 43" fill="none" xmlns="http://www.w3.org/2000/svg">
<path d="M1.98004 2.54017L8.24416 2.57617V0.59613H0V36.5968H23.0405V34.6168H1.98004V2.54017Z" fill="#2B3C7A"/>
<path d="M12.9595 0.59613V2.57617H34.0559L34.0199 34.6168H27.7558V36.5968H35.9999V0.59613H12.9595Z" fill="#2B3C7A"/>
<path d="M13.3209 0.59613H11.3408V2.54017H13.3209V0.59613Z" fill="#3775BA"/>
<path d="M8.27985 13.3042V19.8923H11.4479L12.0599 21.2603H6.76782V13.3042H8.27985Z" fill="#2B3C7A"/>
<path d="M17.3159 15.6804L13.0678 25.5806H11.5198L13.3918 21.1885L11.1238 15.6804H12.7438L13.6078 18.0924L14.1478 19.6765L14.7239 18.1284L15.7679 15.6804H17.3159Z" fill="#2B3C7A"/>
<path d="M19.6202 15.6806L19.7282 16.3286C20.1603 15.6446 20.7363 15.5366 21.3123 15.5366C21.8883 15.5366 22.4643 15.7526 22.7523 16.0766L22.1403 17.2647C21.8523 17.0127 21.6003 16.9046 21.1323 16.9046C20.4123 16.9046 19.7282 17.3007 19.7282 18.3087V21.2607H18.3242V15.6446L19.6202 15.6806Z" fill="#2B3C7A"/>
<path d="M27.7213 15.6805H29.0534V21.2966H27.7573L27.6853 20.4686C27.3613 21.1166 26.4973 21.4406 25.8493 21.4406C24.1933 21.4406 22.9692 20.4325 22.9692 18.4525C22.9692 16.5085 24.2653 15.5005 25.8853 15.5365C26.6413 15.5365 27.3613 15.8965 27.6853 16.4365L27.7213 15.6805ZM24.3373 18.4525C24.3373 19.5325 25.0933 20.1445 25.9933 20.1445C28.1893 20.1445 28.1893 16.7605 25.9933 16.7605C25.0933 16.7605 24.3373 17.4085 24.3373 18.4525Z" fill="#2B3C7A"/>
<path d="M24.6959 34.6528H22.7158V36.5968H24.6959V34.6528Z" fill="#3775BA"/>
<ellipse cx="18.7199" cy="35.316" rx="7.20014" ry="7.20014" fill="#9253B8"/>
<path d="M22.4901 31.3883H14.6354C14.5313 31.3883 14.4314 31.4297 14.3577 31.5033C14.2841 31.577 14.2427 31.6769 14.2427 31.781V33.352C14.2434 33.5951 14.3192 33.832 14.4598 34.0303C14.6005 34.2285 14.799 34.3785 15.0281 34.4595V38.8503C15.0281 38.9544 15.0695 39.0543 15.1432 39.128C15.2168 39.2016 15.3167 39.243 15.4209 39.243H21.7046C21.8088 39.243 21.9087 39.2016 21.9823 39.128C22.056 39.0543 22.0974 38.9544 22.0974 38.8503V34.4595C22.3266 34.3785 22.5251 34.2285 22.6657 34.0303C22.8063 33.832 22.8822 33.5951 22.8828 33.352V31.781C22.8828 31.6769 22.8415 31.577 22.7678 31.5033C22.6942 31.4297 22.5943 31.3883 22.4901 31.3883ZM19.741 32.1738H20.5264V33.352C20.5264 33.4561 20.4851 33.556 20.4114 33.6297C20.3378 33.7033 20.2379 33.7447 20.1337 33.7447C20.0295 33.7447 19.9296 33.7033 19.856 33.6297C19.7823 33.556 19.741 33.4561 19.741 33.352V32.1738ZM18.17 32.1738H18.9555V33.352C18.9555 33.4561 18.9141 33.556 18.8405 33.6297C18.7668 33.7033 18.6669 33.7447 18.5628 33.7447C18.4586 33.7447 18.3587 33.7033 18.2851 33.6297C18.2114 33.556 18.17 33.4561 18.17 33.352V32.1738ZM16.5991 32.1738H17.3846V33.352C17.3846 33.4561 17.3432 33.556 17.2695 33.6297C17.1959 33.7033 17.096 33.7447 16.9918 33.7447C16.8877 33.7447 16.7878 33.7033 16.7141 33.6297C16.6405 33.556 16.5991 33.4561 16.5991 33.352V32.1738ZM15.4209 33.7447C15.3167 33.7447 15.2168 33.7033 15.1432 33.6297C15.0695 33.556 15.0281 33.4561 15.0281 33.352V32.1738H15.8136V33.352C15.8136 33.4561 15.7722 33.556 15.6986 33.6297C15.6249 33.7033 15.525 33.7447 15.4209 33.7447ZM19.3482 38.4575H17.7773V36.8866C17.7773 36.6783 17.86 36.4785 18.0074 36.3312C18.1547 36.1839 18.3544 36.1011 18.5628 36.1011C18.7711 36.1011 18.9709 36.1839 19.1182 36.3312C19.2655 36.4785 19.3482 36.6783 19.3482 36.8866V38.4575ZM21.3119 38.4575H20.1337V36.8866C20.1337 36.47 19.9682 36.0704 19.6736 35.7758C19.379 35.4812 18.9794 35.3157 18.5628 35.3157C18.1461 35.3157 17.7465 35.4812 17.4519 35.7758C17.1573 36.0704 16.9918 36.47 16.9918 36.8866V38.4575H15.8136V34.4595C15.958 34.4059 16.0911 34.326 16.2064 34.2239C16.4224 34.4171 16.702 34.5239 16.9918 34.5239C17.2816 34.5239 17.5613 34.4171 17.7773 34.2239C17.9933 34.4171 18.2729 34.5239 18.5628 34.5239C18.8526 34.5239 19.1322 34.4171 19.3482 34.2239C19.5642 34.4171 19.8439 34.5239 20.1337 34.5239C20.4235 34.5239 20.7032 34.4171 20.9192 34.2239C21.0344 34.326 21.1676 34.4059 21.3119 34.4595V38.4575ZM22.0974 33.352C22.0974 33.4561 22.056 33.556 21.9823 33.6297C21.9087 33.7033 21.8088 33.7447 21.7046 33.7447C21.6005 33.7447 21.5006 33.7033 21.4269 33.6297C21.3533 33.556 21.3119 33.4561 21.3119 33.352V32.1738H22.0974V33.352Z" fill="white"/>
</svg>
